<svg width="68" height="69" viewBox="0 0 68 69" fill="none" xmlns="http://www.w3.org/2000/svg">
<circle cx="34.0281" cy="34.4241" r="33.201" fill="black" stroke="white"/>
<path d="M22.582 18.5659H38.8782C41.4649 18.5659 43.5989 19.4066 45.2803 21.0879C46.9616 22.7693 47.8023 25.0973 47.8023 28.072C47.8023 31.0467 46.9616 33.3748 45.2803 35.0561C44.3749 35.9615 43.0816 36.5435 41.4002 36.8021L48.9663 51.7403H44.1163L37.1322 37.3841H27.0441V51.7403H22.582V18.5659ZM27.0441 22.252V33.6981H38.4902C39.7836 33.6981 40.8829 33.2454 41.7882 32.3401C42.6936 31.4347 43.1463 30.012 43.1463 28.072C43.1463 26.2613 42.6289 24.8387 41.5942 23.804C40.5596 22.7693 39.3309 22.252 37.9082 22.252H27.0441Z" fill="white"/>
<path fill-rule="evenodd" clip-rule="evenodd" d="M53.5388 30.5221H14.5166V27.6841H53.5388V30.5221Z" fill="black"/>
<path fill-rule="evenodd" clip-rule="evenodd" d="M53.5388 30.5221H14.5166V27.6841H53.5388V30.5221Z" fill="black"/>
<path fill-rule="evenodd" clip-rule="evenodd" d="M53.5388 30.5221H14.5166V27.6841H53.5388V30.5221Z" fill="white"/>
<path fill-rule="evenodd" clip-rule="evenodd" d="M53.5388 30.5221H14.5166V27.6841H53.5388V30.5221Z" fill="white"/>
<path fill-rule="evenodd" clip-rule="evenodd" d="M53.5388 43.2926H14.5166V40.4546H53.5388V43.2926Z" fill="black"/>
<path fill-rule="evenodd" clip-rule="evenodd" d="M53.5388 43.2926H14.5166V40.4546H53.5388V43.2926Z" fill="black"/>
<path fill-rule="evenodd" clip-rule="evenodd" d="M53.5388 43.2926H14.5166V40.4546H53.5388V43.2926Z" fill="white"/>
<path fill-rule="evenodd" clip-rule="evenodd" d="M53.5388 43.2926H14.5166V40.4546H53.5388V43.2926Z" fill="white"/>
</svg>
