<svg width="69" height="56" viewBox="0 0 69 56" fill="none" xmlns="http://www.w3.org/2000/svg">
<path d="M34.1542 2.56218V4.76793L40.115 4.76798C41.4103 4.76798 42.4814 5.72948 42.6527 6.97814L42.6766 7.3253L42.6996 21.8451H37.5765L37.5577 9.89111L34.1542 9.89106L34.1561 25.2774L37.5765 25.2741L37.5799 25.2605H42.7064L42.703 25.2741H59.5718L53.689 19.3868C52.7797 18.4772 52.6973 17.0541 53.4415 16.0515L53.6896 15.7642C54.5992 14.8549 56.0223 14.7725 57.0249 15.5167L57.3122 15.7648L67.5469 26.003C68.4553 26.9118 68.5385 28.3333 67.7961 29.336L67.5486 29.6233L57.314 39.8813C56.3147 40.8828 54.6928 40.8846 53.6914 39.8854C52.7809 38.977 52.6966 37.5541 53.4395 36.5504L53.6872 36.2628L59.5376 30.3972L34.1561 30.4005L34.1542 45.7564L37.6171 45.758L37.5935 33.7991H42.7201L42.7445 48.3153C42.7467 49.6136 41.7826 50.6877 40.5309 50.8577L40.1829 50.8811L34.1542 50.8795V53.4377C34.1542 55.0307 32.7158 56.2373 31.1471 55.9603L2.11603 50.8327C0.892141 50.6166 0 49.553 0 48.3102V7.32954C0 6.07504 0.908551 5.00512 2.14648 4.80183L31.1776 0.0344729C32.7371 -0.221627 34.1542 0.981764 34.1542 2.56218ZM22.2076 26.9682C20.3172 26.9682 18.7848 28.5006 18.7848 30.391C18.7848 32.2813 20.3172 33.8137 22.2076 33.8137C24.0979 33.8137 25.6303 32.2813 25.6303 30.391C25.6303 28.5006 24.0979 26.9682 22.2076 26.9682Z" fill="white"/>
</svg>
