<svg width="31" height="31" viewBox="0 0 31 31" fill="none" xmlns="http://www.w3.org/2000/svg">
<path d="M27.3084 0.741211H3.7018C2.91919 0.741211 2.16864 1.0521 1.61525 1.60549C1.06187 2.15887 0.750977 2.90942 0.750977 3.69203V27.2986C0.750977 28.0812 1.06187 28.8317 1.61525 29.3851C2.16864 29.9385 2.91919 30.2494 3.7018 30.2494H27.3084C28.091 30.2494 28.8415 29.9385 29.3949 29.3851C29.9483 28.8317 30.2592 28.0812 30.2592 27.2986V3.69203C30.2592 2.90942 29.9483 2.15887 29.3949 1.60549C28.8415 1.0521 28.091 0.741211 27.3084 0.741211ZM11.0788 22.8724C11.0788 23.2637 10.9234 23.6389 10.6467 23.9156C10.37 24.1923 9.99474 24.3478 9.60344 24.3478C9.21213 24.3478 8.83686 24.1923 8.56016 23.9156C8.28347 23.6389 8.12803 23.2637 8.12803 22.8724V19.9215C8.12803 19.5302 8.28347 19.155 8.56016 18.8783C8.83686 18.6016 9.21213 18.4461 9.60344 18.4461C9.99474 18.4461 10.37 18.6016 10.6467 18.8783C10.9234 19.155 11.0788 19.5302 11.0788 19.9215V22.8724ZM16.9805 22.8724C16.9805 23.2637 16.825 23.6389 16.5483 23.9156C16.2717 24.1923 15.8964 24.3478 15.5051 24.3478C15.1138 24.3478 14.7385 24.1923 14.4618 23.9156C14.1851 23.6389 14.0297 23.2637 14.0297 22.8724V14.0199C14.0297 13.6286 14.1851 13.2533 14.4618 12.9766C14.7385 12.6999 15.1138 12.5445 15.5051 12.5445C15.8964 12.5445 16.2717 12.6999 16.5483 12.9766C16.825 13.2533 16.9805 13.6286 16.9805 14.0199V22.8724ZM22.8821 22.8724C22.8821 23.2637 22.7267 23.6389 22.45 23.9156C22.1733 24.1923 21.798 24.3478 21.4067 24.3478C21.0154 24.3478 20.6401 24.1923 20.3634 23.9156C20.0868 23.6389 19.9313 23.2637 19.9313 22.8724V8.11826C19.9313 7.72696 20.0868 7.35168 20.3634 7.07499C20.6401 6.7983 21.0154 6.64285 21.4067 6.64285C21.798 6.64285 22.1733 6.7983 22.45 7.07499C22.7267 7.35168 22.8821 7.72696 22.8821 8.11826V22.8724Z" fill="black"/>
</svg>
