<svg width="46" height="46" viewBox="0 0 46 46" fill="none" xmlns="http://www.w3.org/2000/svg">
<path d="M23 46C10.2969 46 0 35.7031 0 23C0 10.2969 10.2969 0 23 0C35.7031 0 46 10.2969 46 23C46 35.7031 35.7031 46 23 46ZM33.5464 16.2928C33.9781 15.8612 33.9781 15.1588 33.5464 14.7271L31.1968 12.3793C30.7652 11.9476 30.0628 11.9476 29.6311 12.3793L22.977 19.0334L16.3229 12.3793C15.8912 11.9476 15.1888 11.9476 14.7572 12.3793L12.4076 14.7271C11.9759 15.1588 11.9759 15.8612 12.4076 16.2928L19.0635 22.9487L12.4076 29.601C11.9759 30.0327 11.9759 30.7351 12.4076 31.1668L14.7572 33.5163C15.1888 33.948 15.8912 33.948 16.3229 33.5163L22.977 26.8605L29.6311 33.5163C30.0628 33.948 30.7652 33.948 31.1968 33.5163L33.5464 31.1668C33.9781 30.7351 33.9781 30.0327 33.5464 29.601L26.8905 22.9487L33.5464 16.2928Z" fill="#DB3A34"/>
</svg>
