<svg width="40" height="40" viewBox="0 0 40 40" fill="none" xmlns="http://www.w3.org/2000/svg">
<path fill-rule="evenodd" clip-rule="evenodd" d="M20 0C31.0457 0 40 8.95431 40 20C40 31.0457 31.0457 40 20 40C8.95431 40 0 31.0457 0 20C0 8.95431 8.95431 0 20 0ZM29.6667 13.6667C29 13 28.4882 12.1785 28 12.6667L18.6667 21.6667L13.6667 17.3333C13.1785 16.8452 12.622 17.6813 12.1339 18.1694C11.6457 18.6576 10.1785 19.5118 10.6667 20L18.3202 26.6667C18.8083 27.1548 19.5118 25.7133 20 25.2252L30.6667 15.3333C31.1548 14.8452 30.1548 14.1548 29.6667 13.6667Z" fill="#177E89"/>
</svg>
