<svg width="607" height="607" viewBox="0 0 607 607" fill="none" xmlns="http://www.w3.org/2000/svg">
<path d="M270.111 604H570.611L450.411 357.256C447.677 351.611 443.408 346.85 438.094 343.519C432.779 340.188 426.633 338.421 420.361 338.421C414.089 338.421 407.943 340.188 402.629 343.519C397.314 346.85 393.045 351.611 390.311 357.256L270.111 604ZM270.111 604H36.3889L207.34 287.473C210.201 282.173 214.442 277.745 219.615 274.659C224.788 271.573 230.699 269.943 236.722 269.943C242.746 269.943 248.657 271.573 253.829 274.659C259.002 277.745 263.243 282.173 266.104 287.473L349.243 441.73L270.111 604ZM3 604H604M403.667 103.167C403.667 122.978 409.541 142.344 420.548 158.816C431.554 175.289 447.198 188.127 465.501 195.709C483.804 203.29 503.944 205.274 523.375 201.409C542.805 197.544 560.653 188.004 574.662 173.995C588.67 159.987 598.21 142.139 602.075 122.708C605.94 103.278 603.957 83.1376 596.375 64.8345C588.794 46.5315 575.955 30.8876 559.483 19.8811C543.011 8.87467 523.644 3 503.833 3C477.267 3 451.79 13.5532 433.005 32.3381C414.22 51.123 403.667 76.6008 403.667 103.167Z" stroke="white" stroke-width="5" stroke-linecap="round" stroke-linejoin="round"/>
</svg>
